<svg xmlns="http://www.w3.org/2000/svg"  width="50" height="50" viewBox="0 0 24 24" id="codeigniter"><g data-name="<Group>"><path fill="none" stroke="red" stroke-linecap="round" stroke-linejoin="round" d="M14.5 23.5c3.28-.72 7-3.72 7-7.5s-3.44-6-5-7a1.43 1.43 0 0 1-1.5 1.5A1.55 1.55 0 0 1 13.5 9c0-1.91.5-1.59.5-3.5s-.22-2.84-2.5-5C12.31 4.56 8.8 6.2 6 9s-3.5 5.25-3.5 7c0 2.21.63 6.28 6 7.5-2.08-1.92-2.5-2.92-2.5-4a5.63 5.63 0 0 1 2.5-4c-1 2.54.67 3 1.5 3s1.5-.75 1.5-2-2-2-2-3.5a3.88 3.88 0 0 1 1-2.5s-.33 1 1 2 6 3.33 6 6-1 3.56-3 5Z" data-name="<Path>"></path></g></svg>